<svg width="320" height="320" viewBox="0 0 320 320" fill="none" xmlns="http://www.w3.org/2000/svg">
<path d="M247 61L252.431 71.5694L263 77L252.431 82.4306L247 93L241.569 82.4306L231 77L241.569 71.5694L247 61Z" fill="#F5D540"/>
<path d="M211 30L214.394 36.6059L221 40L214.394 43.3941L211 50L207.606 43.3941L201 40L207.606 36.6059L211 30Z" fill="#F5D540"/>
<g filter="url(#filter0_bdi_184_3478)">
<path fill-rule="evenodd" clip-rule="evenodd" d="M96 212.989C95.6675 212.996 95.3342 213 95 213C70.1472 213 50 192.853 50 168C50 151.134 59.2787 136.435 73.0099 128.73C73.0033 128.321 73 127.911 73 127.5C73 86.3548 106.355 53 147.5 53C182.991 53 212.686 77.8177 220.177 111.046C247.334 112.186 269 134.563 269 162C269 190.167 246.167 213 218 213H96V212.989Z" fill="url(#paint0_radial_184_3478)" fill-opacity="0.77"/>
</g>
<g style="mix-blend-mode:soft-light" filter="url(#filter1_di_184_3478)">
<circle cx="95" cy="168" r="45" fill="#848484"/>
</g>
<path d="M140.523 242.551L145 213H173L167.888 234.3C167.435 236.186 168.865 238 170.805 238H173.424C175.814 238 177.244 240.659 175.927 242.653L144 291L154.994 249.773C155.502 247.868 154.066 246 152.095 246H143.489C141.653 246 140.248 244.366 140.523 242.551Z" fill="url(#paint1_linear_184_3478)"/>
<mask id="mask0_184_3478" style="mask-type:alpha" maskUnits="userSpaceOnUse" x="50" y="53" width="219" height="160">
<path fill-rule="evenodd" clip-rule="evenodd" d="M96 212.989C95.6675 212.996 95.3342 213 95 213C70.1472 213 50 192.853 50 168C50 151.134 59.2787 136.435 73.0099 128.73C73.0033 128.321 73 127.911 73 127.5C73 86.3548 106.355 53 147.5 53C182.991 53 212.686 77.8177 220.177 111.046C247.334 112.186 269 134.563 269 162C269 190.167 246.167 213 218 213C216.654 213 215.32 212.948 214 212.845V213H96V212.989Z" fill="url(#paint2_radial_184_3478)" fill-opacity="0.77"/>
</mask>
<g mask="url(#mask0_184_3478)">
<g filter="url(#filter2_f_184_3478)">
<path d="M157 175C130.544 194.479 106.514 208.005 91 213H228C211.343 213 176.189 186.55 157 175Z" fill="url(#paint3_radial_184_3478)"/>
</g>
<g style="mix-blend-mode:screen" filter="url(#filter3_f_184_3478)">
<path d="M163 158C146.284 167.573 122.802 212.545 113 215H213C202.475 215 175.124 163.677 163 158Z" fill="url(#paint4_linear_184_3478)"/>
</g>
<g style="mix-blend-mode:screen" filter="url(#filter4_f_184_3478)">
<path d="M158 170C146.781 176.402 130.579 213.358 124 215L191 213C183.936 213 166.137 173.796 158 170Z" fill="url(#paint5_linear_184_3478)"/>
</g>
</g>
<defs>
<filter id="filter0_bdi_184_3478" x="18" y="37" width="283" height="224" filterUnits="userSpaceOnUse" color-interpolation-filters="sRGB">
<feFlood flood-opacity="0" result="BackgroundImageFix"/>
<feGaussianBlur in="BackgroundImage" stdDeviation="8"/>
<feComposite in2="SourceAlpha" operator="in" result="effect1_backgroundBlur_184_3478"/>
<feColorMatrix in="SourceAlpha" type="matrix" values="0 0 0 0 0 0 0 0 0 0 0 0 0 0 0 0 0 0 127 0" result="hardAlpha"/>
<feOffset dy="16"/>
<feGaussianBlur stdDeviation="16"/>
<feColorMatrix type="matrix" values="0 0 0 0 0 0 0 0 0 0.2015 0 0 0 0 0.3875 0 0 0 0.2 0"/>
<feBlend mode="normal" in2="effect1_backgroundBlur_184_3478" result="effect2_dropShadow_184_3478"/>
<feBlend mode="normal" in="SourceGraphic" in2="effect2_dropShadow_184_3478" result="shape"/>
<feColorMatrix in="SourceAlpha" type="matrix" values="0 0 0 0 0 0 0 0 0 0 0 0 0 0 0 0 0 0 127 0" result="hardAlpha"/>
<feOffset dx="1" dy="2"/>
<feGaussianBlur stdDeviation="7"/>
<feComposite in2="hardAlpha" operator="arithmetic" k2="-1" k3="1"/>
<feColorMatrix type="matrix" values="0 0 0 0 1 0 0 0 0 1 0 0 0 0 1 0 0 0 1 0"/>
<feBlend mode="normal" in2="shape" result="effect3_innerShadow_184_3478"/>
</filter>
<filter id="filter1_di_184_3478" x="42" y="107" width="120" height="118" filterUnits="userSpaceOnUse" color-interpolation-filters="sRGB">
<feFlood flood-opacity="0" result="BackgroundImageFix"/>
<feColorMatrix in="SourceAlpha" type="matrix" values="0 0 0 0 0 0 0 0 0 0 0 0 0 0 0 0 0 0 127 0" result="hardAlpha"/>
<feOffset dx="-2" dy="-10"/>
<feGaussianBlur stdDeviation="3"/>
<feColorMatrix type="matrix" values="0 0 0 0 0 0 0 0 0 0 0 0 0 0 0 0 0 0 0.22 0"/>
<feBlend mode="normal" in2="BackgroundImageFix" result="effect1_dropShadow_184_3478"/>
<feBlend mode="normal" in="SourceGraphic" in2="effect1_dropShadow_184_3478" result="shape"/>
<feColorMatrix in="SourceAlpha" type="matrix" values="0 0 0 0 0 0 0 0 0 0 0 0 0 0 0 0 0 0 127 0" result="hardAlpha"/>
<feOffset dx="22" dy="12"/>
<feGaussianBlur stdDeviation="11"/>
<feComposite in2="hardAlpha" operator="arithmetic" k2="-1" k3="1"/>
<feColorMatrix type="matrix" values="0 0 0 0 1 0 0 0 0 1 0 0 0 0 1 0 0 0 0.74 0"/>
<feBlend mode="normal" in2="shape" result="effect2_innerShadow_184_3478"/>
</filter>
<filter id="filter2_f_184_3478" x="83" y="167" width="153" height="54" filterUnits="userSpaceOnUse" color-interpolation-filters="sRGB">
<feFlood flood-opacity="0" result="BackgroundImageFix"/>
<feBlend mode="normal" in="SourceGraphic" in2="BackgroundImageFix" result="shape"/>
<feGaussianBlur stdDeviation="4" result="effect1_foregroundBlur_184_3478"/>
</filter>
<filter id="filter3_f_184_3478" x="109" y="154" width="108" height="65" filterUnits="userSpaceOnUse" color-interpolation-filters="sRGB">
<feFlood flood-opacity="0" result="BackgroundImageFix"/>
<feBlend mode="normal" in="SourceGraphic" in2="BackgroundImageFix" result="shape"/>
<feGaussianBlur stdDeviation="2" result="effect1_foregroundBlur_184_3478"/>
</filter>
<filter id="filter4_f_184_3478" x="120" y="166" width="75" height="53" filterUnits="userSpaceOnUse" color-interpolation-filters="sRGB">
<feFlood flood-opacity="0" result="BackgroundImageFix"/>
<feBlend mode="normal" in="SourceGraphic" in2="BackgroundImageFix" result="shape"/>
<feGaussianBlur stdDeviation="2" result="effect1_foregroundBlur_184_3478"/>
</filter>
<radialGradient id="paint0_radial_184_3478" cx="0" cy="0" r="1" gradientUnits="userSpaceOnUse" gradientTransform="translate(127.164 87.1145) rotate(90.6693) scale(125.829 143.587)">
<stop stop-color="white"/>
<stop offset="1" stop-color="#99CEFF"/>
</radialGradient>
<linearGradient id="paint1_linear_184_3478" x1="162.067" y1="213" x2="162.067" y2="265" gradientUnits="userSpaceOnUse">
<stop stop-color="#E2BC38"/>
<stop offset="1" stop-color="#FFE244"/>
</linearGradient>
<radialGradient id="paint2_radial_184_3478" cx="0" cy="0" r="1" gradientUnits="userSpaceOnUse" gradientTransform="translate(127.164 87.1144) rotate(90.6693) scale(125.829 143.587)">
<stop stop-color="white"/>
<stop offset="1" stop-color="#99CEFF"/>
</radialGradient>
<radialGradient id="paint3_radial_184_3478" cx="0" cy="0" r="1" gradientUnits="userSpaceOnUse" gradientTransform="translate(169.889 208.786) rotate(-90) scale(21.5393 111.274)">
<stop stop-color="#FFDE41"/>
<stop offset="1" stop-color="#FFD200" stop-opacity="0"/>
</radialGradient>
<linearGradient id="paint4_linear_184_3478" x1="165.688" y1="213.888" x2="165.688" y2="206.542" gradientUnits="userSpaceOnUse">
<stop stop-color="#FFDE41"/>
<stop offset="1" stop-color="#FFD200" stop-opacity="0"/>
</linearGradient>
<linearGradient id="paint5_linear_184_3478" x1="159.361" y1="214.224" x2="159.361" y2="204.077" gradientUnits="userSpaceOnUse">
<stop stop-color="#FFDE41"/>
<stop offset="1" stop-color="#FFD200" stop-opacity="0"/>
</linearGradient>
</defs>
</svg>
